<?xml version="1.0" encoding="UTF-8" standalone="no"?>
<svg
   xmlns:dc="http://purl.org/dc/elements/1.1/"
   xmlns:cc="http://creativecommons.org/ns#"
   xmlns:rdf="http://www.w3.org/1999/02/22-rdf-syntax-ns#"
   xmlns:svg="http://www.w3.org/2000/svg"
   xmlns="http://www.w3.org/2000/svg"
   xmlns:sodipodi="http://sodipodi.sourceforge.net/DTD/sodipodi-0.dtd"
   xmlns:inkscape="http://www.inkscape.org/namespaces/inkscape"
   style="enable-background:new"
   viewBox="0 0 882.4408 882.4408"
   height="882.4408"
   width="882.4408"
   id="svg355"
   version="1.1"
   sodipodi:docname="PortZero_Logo_Vectorized_Mattermost.svg"
   inkscape:export-filename="/home/david/portzero/design/mattermost_favicon.png"
   inkscape:export-xdpi="30.958923"
   inkscape:export-ydpi="30.958923"
   inkscape:version="0.92.2 2405546, 2018-03-11">
  <sodipodi:namedview
     pagecolor="#ffffff"
     bordercolor="#666666"
     borderopacity="1"
     objecttolerance="10"
     gridtolerance="10"
     guidetolerance="10"
     inkscape:pageopacity="0"
     inkscape:pageshadow="2"
     inkscape:window-width="958"
     inkscape:window-height="1059"
     id="namedview4978"
     showgrid="false"
     fit-margin-top="0"
     fit-margin-left="0"
     fit-margin-right="0"
     fit-margin-bottom="0"
     inkscape:zoom="0.65823498"
     inkscape:cx="410.08645"
     inkscape:cy="526.94092"
     inkscape:window-x="960"
     inkscape:window-y="19"
     inkscape:window-maximized="0"
     inkscape:current-layer="g4967" />
  <metadata
     id="metadata361">
    <rdf:RDF>
      <cc:Work
         rdf:about="">
        <dc:format>image/svg+xml</dc:format>
        <dc:type
           rdf:resource="http://purl.org/dc/dcmitype/StillImage" />
        <dc:title></dc:title>
      </cc:Work>
    </rdf:RDF>
  </metadata>
  <defs
     id="defs359" />
  <g
     transform="translate(-120.09736,-128.1505)"
     style="display:inline"
     id="layer1" />
  <g
     transform="translate(-40.898118,-128.1505)"
     style="display:inline"
     id="layer2">
    <g
       id="g4967">
      <path
         style="display:inline;fill:#000000;stroke-width:1.33333337"
         d="m 129.97942,926.33504 c -2.2622,-1.02882 -5.4122,-3.52214 -7,-5.5407 -2.76306,-3.51266 -2.88671,-4.93526 -2.88194,-33.15698 0.004,-27.22345 0.21154,-29.82564 2.69586,-33.90042 3.26773,-5.35972 9.69906,-8.2531 18.34478,-8.2531 16.45491,0 33.65523,-5.73938 50.53412,-16.86218 13.06789,-8.61143 22.18751,-18.6086 30.58202,-33.52483 7.44149,-13.22277 10.89045,-16.28144 18.35139,-16.27467 7.97213,0.007 13.40462,3.9226 17.9677,12.9499 13.07859,25.87374 35.97006,44.06905 64.52915,51.29104 48.03168,16.26196 146.3688,-17.59942 160.51402,-39.6735 2.47154,9.64739 23.93968,60.49783 29.70344,65.34771 -60.14928,62.52243 -201.57824,75.80735 -264.93623,30.06737 l -7.04212,-5.34364 -6.95788,5.2351 c -9.47022,7.12536 -24.90272,15.15708 -36.9579,19.23442 -22.62468,7.6522 -59.10513,12.19803 -67.44641,8.40448 z M 327.66319,819.47828 c -10.02601,-2.75568 -15.12424,-6.92409 -36.99274,-30.24596 -57.3498,-61.16126 -97.02576,-118.27721 -128.10521,-184.41514 -6.99498,-14.88554 -19.85004,-47.58303 -21.79558,-55.43819 -0.84738,-3.42128 -0.41388,-3.61901 88.23564,-40.24641 48.99796,-20.24452 113.98721,-47.10672 144.42055,-59.69375 30.43332,-12.58704 55.99825,-23.15769 56.81093,-23.49036 1.69234,-0.69273 2.23334,5.16776 5.18816,56.20204 1.10394,19.06667 2.91283,49.66667 4.01975,68 1.10693,18.33333 2.59747,43.83333 3.31231,56.66667 1.62242,29.12732 5.00105,86.96132 6.11454,104.66666 0.4612,7.33334 1.01719,13.52592 1.23551,13.76131 0.53697,0.57893 1.61157,-14.90667 4.00825,-57.76131 1.10734,-19.8 2.31444,-40.5 2.68247,-46 0.36801,-5.5 1.56143,-25.6 2.65201,-44.66666 1.09059,-19.06667 2.3027,-40.06667 2.69356,-46.66667 0.39086,-6.6 1.58863,-26.88541 2.66171,-45.07869 2.69519,-45.69515 3.63295,-59.58798 4.02211,-59.58798 0.1836,0 9.54341,3.83976 20.79957,8.5328 11.25618,4.69306 67.26578,27.85328 124.46578,51.4672 123.42755,50.95468 153.04719,58.82079 153.73387,59.50747 0.69903,0.69903 -7.91433,22.76329 -13.48805,36.6763 -7.91311,19.75252 -6.65711,11.52105 -31.4989,4.86471 -129.59659,-25.37622 -140.72433,49.69305 -193.59768,85.41499 -15.478,0.92505 -8.99148,100.82936 -18.48258,113.29125 l -3.33333,4.37671 -19.1618,-15.34564 c -22.02859,-17.64148 -27.44494,-20.15016 -41.3499,-19.15196 -15.9255,1.14324 -25.8904,8.36681 -34.88568,25.28867 -10.41546,19.59353 -27.8304,33.9583 -47.32468,39.03592 -9.44029,2.45888 -28.15924,2.47708 -37.04059,0.036 z M 214.75917,402.73851 v -67.92872 l 235.66667,0.33703 235.66667,0.33702 0.34567,67 c 0.2788,54.03872 0.012,67 -1.37639,67 -1.44332,0 -54.82887,-21.78266 -132.30262,-53.98282 -52.01293,-21.61798 -101.80376,-42.01718 -102.55645,-42.01718 -0.47252,0 -7.29063,2.67264 -15.15134,5.9392 -7.86072,3.26656 -58.0922,24.02044 -111.62554,46.11972 -53.53334,22.0993 -99.88334,41.29292 -103.00001,42.6525 l -5.66666,2.47197 z m 64,-130.346 c 0,-40.47032 0.94081,-45.71641 9.6953,-54.06189 2.97318,-2.83427 10.24849,-7.45808 14.18859,-9.33334 l 8.78278,-4.1801 h 140.76128 c 162.8169,0 133.86625,-1.28931 148.62861,4.02368 9.13958,4.67434 16.95058,13.95716 19.17391,22.78682 0.84338,3.34935 1.4362,20.04462 1.4362,40.44659 v 34.74291 H 450.0925 278.75917 Z m 106.66668,-12.242 v -18.66667 h -32 -32.00001 v 18.66667 18.66667 h 32.00001 32 z m 95.99999,0 V 241.48384 H 450.0925 418.75917 v 18.66667 18.66667 h 31.33333 31.33334 z m 97.33333,0 v -18.66667 h -32 -32 v 18.66667 18.66667 h 32 32 z M 388.9947,187.27491 c -0.4962,-0.4962 -0.90219,-14.00218 -0.90219,-30.01329 v -29.11111 h 62.0255 62.02551 l -0.35884,29.66667 -0.35884,29.66666 -60.76448,0.34663 c -33.42047,0.19064 -61.17046,-0.0594 -61.66666,-0.55556 z"
         id="path365-7"
         inkscape:connector-curvature="0"
         sodipodi:nodetypes="cscssscccccccccsccsscsscsssscscssssssssccccssssccccccsssssscccssscsccscccsccccccccccccccccccccccccccccscccccsc" />
    </g>
  </g>
  <path
     style="fill:#0e97d5;fill-opacity:1;stroke-width:1.78773928"
     d="m 604.9408,855.94184 c -50.30088,-6.23349 -89.85849,-25.90997 -124.06139,-61.70973 -36.67978,-38.39237 -54.70959,-84.04108 -54.70959,-138.51636 0,-54.43222 17.6969,-99.46772 54.297,-138.17621 27.32326,-28.89725 66.47478,-51.18199 103.91505,-59.14753 11.57207,-2.46203 43.87889,-6.10118 44.9202,-5.05998 0.4414,0.44147 -5.00767,7.71305 -12.10914,16.15907 -9.53631,11.34173 -14.34464,15.64613 -18.39219,16.46463 -8.66196,1.75167 -26.11732,8.03728 -35.87177,12.91738 -13.30519,6.65645 -23.71578,14.15755 -36.41121,26.2352 -28.4059,27.02368 -43.14321,61.8572 -43.14321,101.97481 0,38.69539 14.85307,74.72473 42.63715,103.42584 58.49832,60.42895 156.76671,63.6243 216.74108,7.04757 29.34856,-27.68593 44.45277,-62.63065 44.51008,-102.97679 0.0471,-32.93413 -9.31859,-62.06946 -28.18428,-87.68195 -8.82435,-11.98005 -9.07218,-12.65715 -10.14232,-27.70997 -0.60344,-8.48643 -1.45199,-17.6422 -1.88586,-20.34616 -0.43375,-2.70396 -0.1551,-4.91628 0.61921,-4.91628 3.28278,0 29.61721,26.34162 39.66444,39.67534 46.82852,62.14607 54.2124,143.90389 19.26309,213.28981 -30.60722,60.76527 -91.69327,102.93761 -157.85665,108.98035 -6.88282,0.62862 -15.32991,1.42517 -18.77132,1.77007 -3.44141,0.34491 -14.70411,-0.41963 -25.02837,-1.69911 z"
     id="path4993"
     inkscape:connector-curvature="0" />
  <path
     style="fill:#0e97d5;fill-opacity:1;stroke-width:1.78773928"
     d="m 621.84016,676.51944 c -33.58783,-11.46581 -47.777,-40.2826 -36.14327,-73.40289 3.31421,-9.43531 9.29435,-18.0362 33.56136,-48.26885 56.60839,-70.52499 66.40415,-82.3752 68.09396,-82.3752 4.21019,0 5.24338,13.88802 6.29175,84.56737 1.10214,74.29721 1.06084,75.58764 -2.73372,85.53084 -11.11996,29.13887 -40.64668,43.65152 -69.07008,33.94873 z"
     id="path4995"
     inkscape:connector-curvature="0" />
</svg>
