<?xml version="1.0" encoding="UTF-8" standalone="no"?>
<!-- Created with Inkscape (http://www.inkscape.org/) -->

<svg
   xmlns:dc="http://purl.org/dc/elements/1.1/"
   xmlns:cc="http://creativecommons.org/ns#"
   xmlns:rdf="http://www.w3.org/1999/02/22-rdf-syntax-ns#"
   xmlns:svg="http://www.w3.org/2000/svg"
   xmlns="http://www.w3.org/2000/svg"
   xmlns:sodipodi="http://sodipodi.sourceforge.net/DTD/sodipodi-0.dtd"
   xmlns:inkscape="http://www.inkscape.org/namespaces/inkscape"
   width="52mm"
   height="52mm"
   viewBox="0 0 52 52"
   version="1.1"
   id="svg9236"
   inkscape:version="0.92.2 5c3e80d, 2017-08-06"
   sodipodi:docname="portzero_sticker.svg">
  <defs
     id="defs9230" />
  <sodipodi:namedview
     id="base"
     pagecolor="#ffffff"
     bordercolor="#666666"
     borderopacity="1.0"
     inkscape:pageopacity="0.0"
     inkscape:pageshadow="2"
     inkscape:zoom="1.4"
     inkscape:cx="42.435057"
     inkscape:cy="81.672494"
     inkscape:document-units="mm"
     inkscape:current-layer="g4967"
     showgrid="true"
     inkscape:window-width="1364"
     inkscape:window-height="747"
     inkscape:window-x="0"
     inkscape:window-y="19"
     inkscape:window-maximized="0">
    <inkscape:grid
       type="xygrid"
       id="grid13788"
       dotted="false"
       empspacing="5"
       units="mm"
       spacingx="1"
       spacingy="1"
       visible="true"
       originx="1"
       originy="1" />
  </sodipodi:namedview>
  <metadata
     id="metadata9233">
    <rdf:RDF>
      <cc:Work
         rdf:about="">
        <dc:format>image/svg+xml</dc:format>
        <dc:type
           rdf:resource="http://purl.org/dc/dcmitype/StillImage" />
        <dc:title></dc:title>
      </cc:Work>
    </rdf:RDF>
  </metadata>
  <g
     inkscape:label="Layer 1"
     inkscape:groupmode="layer"
     id="layer1"
     transform="translate(0,-245)">
    <g
       style="enable-background:new"
       id="g13780"
       transform="matrix(0.04828904,0,0,0.04828904,2.8744265,244.85931)">
      <g
         transform="translate(0,-104)"
         style="display:inline"
         inkscape:label="Layer 1"
         id="layer1-8" />
    </g>
    <g
       transform="matrix(0.04828904,0,0,0.04828904,2.8744265,239.83725)"
       style="enable-background:new;display:inline"
       inkscape:label="Layer 2"
       id="layer2">
      <g
         id="g4967">
        <path
           style="display:inline;fill:#0e97d5;fill-opacity:1;stroke-width:1.23969471"
           d="m 593.35989,986.72266 c -8.81344,-1.0271 -25.94377,-5.3248 -36.06747,-9.04872 -40.86122,-15.02977 -75.25674,-46.22312 -95.23688,-86.37026 -4.86977,-9.7851 -10.43778,-24.41978 -13.18274,-34.64885 -0.28084,-1.04655 -2.77938,-0.94873 -9.45722,0.37005 -45.66598,13.90436 -1.69347,-44.61497 1.23211,-50.70494 6.74796,-14.03901 10.62278,-20.76489 11.96274,-20.76489 1.09006,0 16.05033,11.49844 33.24507,25.55211 22.47903,18.37261 31.26317,26.26999 31.26317,28.10694 0,2.19054 -1.41451,2.85728 -9.91756,4.67479 -5.45466,1.16593 -12.84634,2.51671 -16.42596,3.00167 -3.57962,0.48507 -6.50566,1.24794 -6.50234,1.69535 0.0148,1.97985 9.39626,18.85799 14.3216,25.76572 15.45929,21.68142 41.24784,35.92505 60.43507,33.3798 21.63844,-2.87048 37.8765,-26.20848 37.99841,-54.61298 0.0205,-4.77289 -0.53917,-10.75345 -1.2437,-13.29024 -2.21992,-7.99315 -3.72031,-8.40448 -30.65484,-8.40448 -24.92493,0 -29.92278,-0.887 -31.74443,-5.63413 -0.42354,-1.10374 -0.77007,-7.56516 -0.77007,-14.3587 0,-11.46144 0.21937,-12.57127 3.0429,-15.39478 3.01715,-3.01718 3.24196,-3.0429 26.59509,-3.0429 14.96319,0 24.68122,-0.51441 26.64808,-1.41058 4.57475,-2.08438 5.69866,-7.06972 5.69866,-25.27744 v -16.40049 l -3.93084,-1.62821 c -2.16197,-0.89551 -7.18668,-4.81404 -11.16603,-8.70783 -21.37841,-20.91879 -21.2063,-54.34519 0.3859,-74.94065 8.17393,-7.79661 16.8267,-12.178 27.95744,-14.15644 21.78042,-3.87138 45.52598,8.73983 55.29714,29.36819 3.76898,7.95685 3.97701,9.15016 3.9495,22.65574 -0.0258,12.69338 -0.37917,15.00406 -3.22265,21.07481 -3.92311,8.37575 -13.17787,18.82457 -20.44603,23.08399 l -5.43511,3.18519 v 19.00749 19.00749 l 3.26643,2.56937 c 3.04839,2.39788 4.86412,2.56937 27.20414,2.56937 23.51729,0 23.99883,0.0525 27.41603,2.99191 3.40274,2.9269 3.47829,3.27621 3.47829,16.08159 0,19.29007 1.16055,18.57312 -31.33367,19.35701 -14.87428,0.35889 -26.63521,1.17904 -27.93168,1.94796 -5.4655,3.24146 -7.21268,17.9219 -3.96017,33.27483 3.81377,18.00223 13.81653,32.51605 26.41109,38.32191 7.92896,3.65512 22.73218,3.52895 32.65627,-0.27837 14.96749,-5.74227 29.47237,-17.59703 39.35252,-32.16273 4.78897,-7.06003 12.53387,-21.55814 12.53387,-23.46278 0,-0.5639 -6.93814,-2.29337 -15.41811,-3.8433 -17.51787,-3.20166 -20.19135,-4.82969 -15.47506,-9.42341 8.18938,-7.97651 61.25224,-50.24279 63.07691,-50.24279 1.45835,0 4.11508,4.26143 8.69476,13.94656 23.514,49.72807 27.3149,58.17606 26.65504,59.24381 -1.08615,1.75736 -6.01515,1.44682 -19.17494,-1.20795 -6.47167,-1.30559 -11.81981,-2.27608 -11.88471,-2.1567 -0.0651,0.11938 -2.21099,6.3535 -4.76898,13.85368 -9.34578,27.40249 -23.20215,49.59082 -43.35383,69.42293 -25.18478,24.78528 -59.26188,42.16948 -92.47751,47.17668 -10.77608,1.6245 -38.95112,2.1293 -49.5957,0.8886 z m 32.72286,-267.20174 c 6.21209,-3.56144 9.42676,-9.61532 9.42676,-17.75252 0,-20.53478 -28.01903,-27.16867 -37.36609,-8.84692 -9.12059,17.87782 10.52628,36.58247 27.93933,26.59944 z"
           id="path365"
           inkscape:connector-curvature="0"
           sodipodi:nodetypes="ccscccssscccsccsscscscscccssscssccccscsccscccsccsccccscccssss" />
        <path
           style="display:inline;fill:#000000;stroke-width:1.23969471"
           d="m 152.30254,909.07624 c -2.10332,-0.95656 -5.0321,-3.27478 -6.50839,-5.15158 -2.56902,-3.26597 -2.68398,-4.58866 -2.67955,-30.8284 0.004,-25.31157 0.19669,-27.73101 2.50653,-31.51963 3.03825,-4.98331 9.01791,-7.67349 17.05645,-7.67349 15.2993,0 31.29166,-5.33631 46.98516,-15.67796 12.15014,-8.00666 20.6293,-17.30174 28.43427,-31.17042 6.91889,-12.29415 10.12563,-15.13801 17.06259,-15.13172 7.41226,0.007 12.46323,3.64712 16.70585,12.04045 12.16009,24.05665 33.44392,40.97412 59.99733,47.68892 14.8807,3.763 34.60255,2.82016 49.88843,-2.385 6.13649,-2.08961 11.30126,-3.66341 11.47729,-3.49736 0.17602,0.16607 -1.63339,4.52989 -4.0209,9.69737 -6.37751,13.80327 -7.45577,20.13241 -5.03781,29.57066 2.29797,8.96986 5.48472,14.57974 10.8437,19.08902 5.39345,4.53831 14.77303,9.07659 20.72686,10.02865 2.78367,0.44513 5.06123,1.2558 5.06123,1.8015 0,1.43027 -12.39062,5.90219 -25.99602,9.38228 -45.41522,11.61665 -100.22028,2.5689 -132.41412,-21.86022 l -6.54756,-4.96836 -6.46924,4.86745 c -8.80513,6.62495 -23.15382,14.09261 -34.36238,17.8836 -21.03577,7.1148 -54.95424,11.34138 -62.70972,7.81424 z M 336.10318,809.72393 C 326.78129,807.16177 322.0411,803.28611 301.7084,781.60211 248.38622,724.73614 211.49667,671.63139 182.59989,610.13826 176.09616,596.29812 164.1439,565.89694 162.335,558.59344 c -0.78787,-3.18101 -0.38482,-3.36485 82.03894,-37.41995 45.55688,-18.82277 105.982,-43.79846 134.27804,-55.50152 28.29601,-11.70306 52.06554,-21.53134 52.82115,-21.84065 1.57349,-0.64408 2.0765,4.80483 4.8238,52.25503 1.02641,17.72763 2.70827,46.17863 3.73745,63.22442 1.02919,17.0458 2.41505,40.75496 3.07969,52.68703 1.50848,27.08174 4.64983,80.85412 5.68512,97.31603 0.42881,6.81832 0.94575,12.57601 1.14874,12.79486 0.49926,0.53828 1.49839,-13.85979 3.72676,-53.70479 1.02957,-18.40946 2.1519,-37.65572 2.49408,-42.76946 0.34216,-5.11374 1.45177,-23.80214 2.46576,-41.52977 1.014,-17.72764 2.14098,-37.25283 2.5044,-43.38932 0.36341,-6.13648 1.47706,-24.99727 2.47478,-41.91285 2.50591,-42.48603 3.37781,-55.40318 3.73964,-55.40318 0.1707,0 8.87318,3.5701 19.33883,7.93355 10.46567,4.36347 62.54178,25.89717 115.72468,47.85271 114.75936,47.37618 134.8831,55.74926 135.52155,56.38771 0.64994,0.64994 -5.36091,18.66764 -10.54319,31.60355 -7.35738,18.36532 -25.1623,54.47222 -34.10942,69.17102 l -2.47129,4.06 -3.85013,-5.91954 c -5.64436,-8.67812 -19.02429,-21.35777 -28.19166,-26.71614 -4.40427,-2.57431 -12.47067,-6.15317 -17.92533,-7.95301 -8.58675,-2.83332 -11.99693,-3.27244 -25.41374,-3.27244 -13.41681,0 -16.82698,0.43912 -25.41375,3.27244 -13.6473,4.50313 -24.36217,11.06835 -34.78166,21.31145 -16.36073,16.08379 -24.13971,33.99092 -25.0417,57.64581 -0.80143,21.01766 4.08004,38.16613 15.16158,53.26222 7.53674,9.21869 2.77862,7.244 -5.23592,7.73845 -14.391,0.86009 -24.95714,6.52502 -33.78169,18.11173 l -3.09923,4.06934 -17.81609,-14.26794 c -20.48154,-16.40253 -25.5175,-18.73503 -38.44593,-17.80693 -14.80707,1.06295 -24.07215,7.77921 -32.4357,23.51267 -9.68399,18.2175 -25.8759,31.57344 -44.00111,36.29447 -8.77731,2.28619 -26.18165,2.30311 -34.43927,0.0335 z M 231.1283,422.25137 v -63.15815 l 219.11603,0.31336 219.11604,0.31335 0.32139,62.29466 c 0.25922,50.24363 0.0112,62.29465 -1.27972,62.29465 -1.34196,0 -50.9783,-20.25288 -123.01114,-50.19166 -48.36012,-20.09977 -94.65419,-39.06635 -95.35402,-39.06635 -0.43933,0 -6.77861,2.48494 -14.08727,5.52209 -7.30867,3.03716 -54.01245,22.33351 -103.78619,42.88078 -49.77375,20.54729 -92.86864,38.39296 -95.76643,39.65706 l -5.26869,2.29837 z m 59.50534,-121.19193 c 0,-37.62813 0.87474,-42.50579 9.01441,-50.26518 2.76438,-2.63522 8.70083,-6.54026 13.19214,-8.67787 l 8.16597,-3.88653 h 130.87576 130.87576 l 7.31481,3.7411 c 8.49772,4.34606 15.76016,12.97696 17.82735,21.18652 0.78415,3.11413 1.33534,18.63691 1.33534,37.60607 V 333.0665 H 449.9344 290.63364 Z m 99.17559,-11.38226 v -17.35573 h -29.75267 -29.75269 v 17.35573 17.35573 h 29.75269 29.75267 z m 89.258,0 V 272.32145 H 449.9344 420.80158 v 17.35573 17.35573 h 29.13282 29.13283 z m 90.49771,0 V 272.32145 H 539.81227 510.0596 v 17.35573 17.35573 h 29.75267 29.75267 z m -176.4375,-67.75762 c -0.46135,-0.46135 -0.83883,-13.01882 -0.83883,-27.90548 v -27.06667 h 57.66951 57.66952 l -0.33364,27.58321 -0.33364,27.5832 -56.49705,0.32229 c -31.07338,0.17725 -56.87452,-0.0552 -57.33587,-0.51655 z"
           id="path365-7"
           inkscape:connector-curvature="0"
           sodipodi:nodetypes="cscssscccssccscssscccsccsscsscsssscscssssssssccccsscssccccssssccccccsssssscccssscccccscccsccccccccccccccccccccccccccccscccccsc" />
        <text
           id="text8903"
           y="1120.8429"
           x="137.98373"
           style="font-style:normal;font-variant:normal;font-weight:500;font-stretch:normal;font-size:134.82572937px;line-height:1.25;font-family:'Fira Sans';-inkscape-font-specification:'Fira Sans, Medium';font-variant-ligatures:normal;font-variant-caps:normal;font-variant-numeric:normal;font-feature-settings:normal;text-align:start;letter-spacing:0px;word-spacing:0px;writing-mode:lr-tb;text-anchor:start;fill:#000000;fill-opacity:1;stroke:none;stroke-width:1.51639748"
           xml:space="preserve"><tspan
             style="font-style:normal;font-variant:normal;font-weight:500;font-stretch:normal;font-size:134.82572937px;font-family:'Fira Sans';-inkscape-font-specification:'Fira Sans, Medium';font-variant-ligatures:normal;font-variant-caps:normal;font-variant-numeric:normal;font-feature-settings:normal;text-align:start;writing-mode:lr-tb;text-anchor:start;stroke-width:1.51639748"
             y="1120.8429"
             x="137.98373"
             id="tspan8901"
             sodipodi:role="line">PORT ZERO</tspan></text>
      </g>
    </g>
  </g>
</svg>
