<?xml version="1.0" encoding="UTF-8" standalone="no"?>
<!-- Created with Inkscape (http://www.inkscape.org/) -->

<svg
   xmlns:dc="http://purl.org/dc/elements/1.1/"
   xmlns:cc="http://creativecommons.org/ns#"
   xmlns:rdf="http://www.w3.org/1999/02/22-rdf-syntax-ns#"
   xmlns:svg="http://www.w3.org/2000/svg"
   xmlns="http://www.w3.org/2000/svg"
   xmlns:sodipodi="http://sodipodi.sourceforge.net/DTD/sodipodi-0.dtd"
   xmlns:inkscape="http://www.inkscape.org/namespaces/inkscape"
   width="14.8cm"
   height="10.5cm"
   viewBox="0 0 148 105"
   version="1.1"
   id="svg8"
   inkscape:version="0.92.2 2405546, 2018-03-11"
   sodipodi:docname="einladung.svg"
   inkscape:export-filename="/home/david/bitmap.png"
   inkscape:export-xdpi="268.20001"
   inkscape:export-ydpi="268.20001">
  <defs
     id="defs2" />
  <sodipodi:namedview
     id="base"
     pagecolor="#ffffff"
     bordercolor="#666666"
     borderopacity="1.0"
     inkscape:pageopacity="0.0"
     inkscape:pageshadow="2"
     inkscape:zoom="1"
     inkscape:cx="269.51113"
     inkscape:cy="231.58244"
     inkscape:document-units="mm"
     inkscape:current-layer="layer3"
     showgrid="false"
     width="52mm"
     inkscape:window-width="1364"
     inkscape:window-height="730"
     inkscape:window-x="0"
     inkscape:window-y="37"
     inkscape:window-maximized="0"
     height="52mm"
     inkscape:measure-start="240.416,90.9137"
     inkscape:measure-end="134.286,211.429"
     showguides="true"
     showborder="true"
     inkscape:pagecheckerboard="false"
     units="cm">
    <inkscape:grid
       type="xygrid"
       id="grid4996" />
  </sodipodi:namedview>
  <metadata
     id="metadata5">
    <rdf:RDF>
      <cc:Work
         rdf:about="">
        <dc:format>image/svg+xml</dc:format>
        <dc:type
           rdf:resource="http://purl.org/dc/dcmitype/StillImage" />
        <dc:title />
      </cc:Work>
    </rdf:RDF>
  </metadata>
  <g
     inkscape:label="Layer 1"
     inkscape:groupmode="layer"
     id="layer1"
     transform="translate(0,-192)"
     style="display:inline">
    <g
       inkscape:groupmode="layer"
       id="layer3"
       inkscape:label="Layer 2">
      <rect
         style="opacity:1;fill:#0e97d5;fill-opacity:1;stroke-width:0.32872254;enable-background:new"
         id="rect4869"
         width="80.146149"
         height="105.64719"
         x="68.020515"
         y="191.88196" />
      <text
         xml:space="preserve"
         style="font-style:normal;font-weight:normal;font-size:4.01618147px;line-height:1;font-family:sans-serif;text-align:center;letter-spacing:0px;word-spacing:0px;text-anchor:middle;fill:#000000;fill-opacity:1;stroke:none;stroke-width:0.10040453"
         x="108.57018"
         y="206.76598"
         id="text4883"><tspan
           sodipodi:role="line"
           x="108.57018"
           y="206.76598"
           style="font-style:normal;font-variant:normal;font-weight:normal;font-stretch:normal;font-size:5.34307671px;line-height:1;font-family:'Fira sans';-inkscape-font-specification:'Fira sans';text-align:center;text-anchor:middle;fill:#ffffff;stroke-width:0.10040453"
           id="tspan4915">we're celebrating</tspan><tspan
           sodipodi:role="line"
           x="108.57018"
           y="212.10905"
           style="font-style:normal;font-variant:normal;font-weight:normal;font-stretch:normal;font-size:5.34307671px;line-height:1;font-family:'Fira sans';-inkscape-font-specification:'Fira sans';text-align:center;text-anchor:middle;fill:#ffffff;stroke-width:0.10040453"
           id="tspan13449">5 years port zero</tspan><tspan
           sodipodi:role="line"
           x="108.57018"
           y="217.45213"
           style="font-style:normal;font-variant:normal;font-weight:normal;font-stretch:normal;font-size:5.34307671px;line-height:1;font-family:'Fira sans';-inkscape-font-specification:'Fira sans';text-align:center;text-anchor:middle;fill:#ffffff;stroke-width:0.10040453"
           id="tspan13447">with free food, drinks,</tspan><tspan
           sodipodi:role="line"
           x="108.57018"
           y="222.79521"
           style="font-style:normal;font-variant:normal;font-weight:normal;font-stretch:normal;font-size:5.34307671px;line-height:1;font-family:'Fira sans';-inkscape-font-specification:'Fira sans';text-align:center;text-anchor:middle;fill:#ffffff;stroke-width:0.10040453"
           id="tspan13451">cocktails and games</tspan><tspan
           sodipodi:role="line"
           x="108.57018"
           y="227.02649"
           style="font-style:normal;font-variant:normal;font-weight:normal;font-stretch:normal;font-size:5.34307671px;line-height:1;font-family:'Fira sans';-inkscape-font-specification:'Fira sans';text-align:center;text-anchor:middle;fill:#ffffff;stroke-width:0.10040453"
           id="tspan13443" /><tspan
           sodipodi:role="line"
           x="108.57018"
           y="231.04268"
           style="font-style:normal;font-variant:normal;font-weight:normal;font-stretch:normal;font-size:5.34307671px;line-height:1;font-family:'Fira sans';-inkscape-font-specification:'Fira sans';text-align:center;text-anchor:middle;fill:#ffffff;stroke-width:0.10040453"
           id="tspan13401" /><tspan
           sodipodi:role="line"
           x="108.57018"
           y="235.05885"
           style="font-style:normal;font-variant:normal;font-weight:normal;font-stretch:normal;font-size:5.34307671px;line-height:1;font-family:'Fira sans';-inkscape-font-specification:'Fira sans';text-align:center;text-anchor:middle;fill:#ffffff;stroke-width:0.10040453"
           id="tspan8747" /><tspan
           sodipodi:role="line"
           x="108.57018"
           y="240.18683"
           style="font-style:normal;font-variant:normal;font-weight:normal;font-stretch:normal;font-size:5.34307671px;line-height:1;font-family:'Fira sans';-inkscape-font-specification:'Fira sans';text-align:center;text-anchor:middle;fill:#ffffff;stroke-width:0.10040453"
           id="tspan4889">may 14 2018 19:00 CEST</tspan><tspan
           sodipodi:role="line"
           x="108.57018"
           y="244.41811"
           style="font-style:normal;font-variant:normal;font-weight:normal;font-stretch:normal;font-size:5.34307671px;line-height:1;font-family:'Fira sans';-inkscape-font-specification:'Fira sans';text-align:center;text-anchor:middle;fill:#ffffff;stroke-width:0.10040453"
           id="tspan4919" /><tspan
           sodipodi:role="line"
           x="108.57018"
           y="249.54608"
           style="font-style:normal;font-variant:normal;font-weight:normal;font-stretch:normal;font-size:5.34307671px;line-height:1;font-family:'Fira sans';-inkscape-font-specification:'Fira sans';text-align:center;text-anchor:middle;fill:#ffffff;stroke-width:0.10040453"
           id="tspan4901">interface bar</tspan><tspan
           sodipodi:role="line"
           x="108.57018"
           y="253.77737"
           style="font-style:normal;font-variant:normal;font-weight:normal;font-stretch:normal;font-size:3.88587403px;line-height:1;font-family:'Fira sans';-inkscape-font-specification:'Fira sans';text-align:center;text-anchor:middle;fill:#ffffff;stroke-width:0.10040453"
           id="tspan4903">perleberger strasse 17</tspan><tspan
           sodipodi:role="line"
           x="108.57018"
           y="257.79355"
           style="font-style:normal;font-variant:normal;font-weight:normal;font-stretch:normal;font-size:3.88587403px;line-height:1;font-family:'Fira sans';-inkscape-font-specification:'Fira sans';text-align:center;text-anchor:middle;fill:#ffffff;stroke-width:0.10040453"
           id="tspan8733">10559 berlin</tspan><tspan
           sodipodi:role="line"
           x="108.57018"
           y="261.80972"
           style="font-style:normal;font-variant:normal;font-weight:normal;font-stretch:normal;font-size:3.88587403px;line-height:1;font-family:'Fira sans';-inkscape-font-specification:'Fira sans';text-align:center;text-anchor:middle;fill:#ffffff;stroke-width:0.10040453"
           id="tspan4907">52.533281, 13.351784</tspan><tspan
           sodipodi:role="line"
           x="108.57018"
           y="265.82593"
           style="font-style:normal;font-variant:normal;font-weight:normal;font-stretch:normal;font-size:5.34307671px;line-height:1;font-family:'Fira sans';-inkscape-font-specification:'Fira sans';text-align:center;text-anchor:middle;fill:#ffffff;stroke-width:0.10040453"
           id="tspan13403" /><tspan
           sodipodi:role="line"
           x="108.57018"
           y="269.8421"
           style="font-style:normal;font-variant:normal;font-weight:normal;font-stretch:normal;font-size:5.34307671px;line-height:1;font-family:'Fira sans';-inkscape-font-specification:'Fira sans';text-align:center;text-anchor:middle;fill:#ffffff;stroke-width:0.10040453"
           id="tspan4925" /><tspan
           sodipodi:role="line"
           x="108.57018"
           y="274.97006"
           style="font-style:normal;font-variant:normal;font-weight:normal;font-stretch:normal;font-size:5.34307671px;line-height:1;font-family:'Fira sans';-inkscape-font-specification:'Fira sans';text-align:center;text-anchor:middle;fill:#ffffff;stroke-width:0.10040453"
           id="tspan4935">feel free to bring your +1</tspan><tspan
           sodipodi:role="line"
           x="108.57018"
           y="279.20135"
           style="font-style:normal;font-variant:normal;font-weight:normal;font-stretch:normal;font-size:3.88584733px;line-height:1;font-family:'Fira sans';-inkscape-font-specification:'Fira sans';text-align:center;text-anchor:middle;fill:#ffffff;stroke-width:0.10040453"
           id="tspan8745">please register at</tspan><tspan
           sodipodi:role="line"
           x="108.57018"
           y="283.21753"
           style="font-style:normal;font-variant:normal;font-weight:normal;font-stretch:normal;font-size:3.88584733px;line-height:1;font-family:'Fira sans';-inkscape-font-specification:'Fira sans';text-align:center;text-anchor:middle;fill:#ffffff;stroke-width:0.10040453"
           id="tspan8741">party.port-zero.com</tspan><tspan
           sodipodi:role="line"
           x="108.57018"
           y="287.2337"
           style="font-style:normal;font-variant:normal;font-weight:normal;font-stretch:normal;font-size:3.88584733px;line-height:1;font-family:'Fira sans';-inkscape-font-specification:'Fira sans';text-align:center;text-anchor:middle;fill:#ffffff;stroke-width:0.10040453"
           id="tspan4921" /><tspan
           sodipodi:role="line"
           x="108.57018"
           y="291.24991"
           style="font-style:normal;font-variant:normal;font-weight:normal;font-stretch:normal;font-size:3.88584733px;line-height:1;font-family:'Fira sans';-inkscape-font-specification:'Fira sans';text-align:center;text-anchor:middle;fill:#ffffff;stroke-width:0.10040453"
           id="tspan4923" /><tspan
           sodipodi:role="line"
           x="108.57018"
           y="295.26608"
           style="font-style:normal;font-variant:normal;font-weight:normal;font-stretch:normal;font-size:5.34307671px;line-height:1;font-family:'Fira sans';-inkscape-font-specification:'Fira sans';text-align:center;text-anchor:middle;fill:#ffffff;stroke-width:0.10040453"
           id="tspan4911" /><tspan
           sodipodi:role="line"
           x="108.57018"
           y="299.28226"
           style="font-style:normal;font-variant:normal;font-weight:normal;font-stretch:normal;font-size:5.34307671px;line-height:1;font-family:'Fira sans';-inkscape-font-specification:'Fira sans';text-align:center;text-anchor:middle;fill:#ffffff;stroke-width:0.10040453"
           id="tspan4895" /><tspan
           sodipodi:role="line"
           x="108.57018"
           y="303.29843"
           style="font-style:normal;font-variant:normal;font-weight:normal;font-stretch:normal;font-size:5.34307671px;line-height:1;font-family:'Fira sans';-inkscape-font-specification:'Fira sans';text-align:center;text-anchor:middle;fill:#ffffff;stroke-width:0.10040453"
           id="tspan4891" /></text>
    </g>
    <g
       id="layer1-3"
       inkscape:label="Layer 1"
       style="display:inline"
       transform="matrix(0.06066749,0,0,0.06066749,-4.3410772,141.81406)" />
    <path
       sodipodi:nodetypes="ccscccssscccsccsscscscscccssccsccccscsccscccsccsccccscccssss"
       inkscape:connector-curvature="0"
       id="path365"
       d="m 44.300888,275.13967 c -0.791815,-0.0923 -2.330832,-0.47838 -3.24036,-0.81295 -3.671038,-1.3503 -6.761187,-4.15275 -8.556235,-7.75963 -0.437508,-0.87911 -0.937747,-2.19391 -1.184359,-3.11291 -0.02522,-0.094 -0.249704,-0.0852 -0.849652,0.0333 -4.102706,1.24919 -0.152143,-4.00828 0.110701,-4.55541 0.606248,-1.26128 0.954367,-1.86555 1.074752,-1.86555 0.09794,0 1.441986,1.03303 2.98679,2.29563 2.019552,1.65063 2.808733,2.36014 2.808733,2.52518 0,0.1968 -0.127086,0.25669 -0.891009,0.41999 -0.490056,0.10478 -1.154135,0.2261 -1.475734,0.26967 -0.321599,0.0436 -0.584479,0.11207 -0.584182,0.15232 0.0013,0.17787 0.844176,1.69423 1.286676,2.31483 1.388887,1.9479 3.705773,3.22756 5.429585,2.99888 1.944031,-0.25789 3.402886,-2.35459 3.413837,-4.90651 0.0018,-0.4288 -0.04844,-0.9661 -0.111734,-1.19401 -0.199442,-0.71812 -0.334239,-0.75508 -2.75408,-0.75508 -2.239296,0 -2.688312,-0.0797 -2.851971,-0.50617 -0.03806,-0.0991 -0.06919,-0.67966 -0.06919,-1.29 0,-1.02972 0.0197,-1.12943 0.273379,-1.3831 0.271065,-0.27106 0.291263,-0.27338 2.389346,-0.27338 1.344315,0 2.217399,-0.0463 2.394106,-0.12667 0.411003,-0.18727 0.511976,-0.63516 0.511976,-2.27097 v -1.47344 l -0.353153,-0.14628 c -0.194235,-0.0804 -0.645662,-0.43251 -1.003174,-0.78232 -1.920671,-1.87938 -1.905208,-4.88246 0.03467,-6.73278 0.73436,-0.70047 1.511738,-1.09409 2.511741,-1.27185 1.956789,-0.3478 4.090128,0.78521 4.967985,2.6385 0.464158,1.21909 0.574167,2.82917 0.06531,3.92882 -0.352459,0.75248 -1.183922,1.69122 -1.836906,2.0739 l -0.488298,0.28614 v 1.70767 1.70767 l 0.293461,0.23083 c 0.273872,0.21543 0.437001,0.23084 2.444063,0.23084 2.112832,0 2.156094,0.004 2.463102,0.26879 0.305707,0.26296 0.312494,0.29434 0.312494,1.4448 0,1.73305 0.104271,1.66864 -2.815067,1.73906 -1.33633,0.0322 -2.392951,0.10588 -2.509428,0.17501 -0.491027,0.29121 -0.647998,1.61013 -0.355787,2.98947 0.342635,1.61734 1.241298,2.92128 2.372815,3.44288 0.712351,0.32839 2.042296,0.31706 2.933892,-0.0251 1.344702,-0.51589 2.647845,-1.58094 3.535493,-2.88954 0.430249,-0.63429 1.126063,-1.93682 1.126063,-2.10793 0,-0.0507 -0.623333,-0.20605 -1.385188,-0.34529 -1.573833,-0.28765 -1.814022,-0.43392 -1.390304,-0.84662 0.735747,-0.71662 5.503003,-4.51388 5.666935,-4.51388 0.131024,0 0.369704,0.38285 0.78115,1.25299 2.112539,4.46763 2.454019,5.22661 2.394735,5.32254 -0.09758,0.15788 -0.54041,0.12998 -1.722709,-0.1085 -0.581427,-0.11731 -1.061913,-0.20448 -1.067742,-0.19376 -0.0058,0.011 -0.198641,0.57081 -0.428454,1.24464 -0.839642,2.46188 -2.084522,4.45531 -3.89498,6.23706 -2.262641,2.22674 -5.324182,3.78857 -8.308329,4.23841 -0.968141,0.14595 -3.499432,0.19132 -4.455756,0.0799 z m 2.939873,-24.00581 c 0.558104,-0.31996 0.846916,-0.86386 0.846916,-1.59492 0,-1.84487 -2.517276,-2.44087 -3.357031,-0.7948 -0.819408,1.60616 0.945698,3.28662 2.510115,2.38972 z"
       style="display:inline;fill:#0e97d5;fill-opacity:1;stroke-width:0.11137617" />
    <path
       sodipodi:nodetypes="cscssscccssccscssscccsccsscsscsssscscssssssssccccccssccccssssccccccsssssscccsssccccscccsccccccccccccccccccccccccccccscccccsc"
       inkscape:connector-curvature="0"
       id="path365-7"
       d="m 4.5296361,268.1638 c -0.1889663,-0.0859 -0.4520925,-0.29422 -0.5847248,-0.46283 -0.2308042,-0.29341 -0.2411329,-0.41225 -0.2407345,-2.76967 3.342e-4,-2.27402 0.01767,-2.49139 0.2251909,-2.83177 0.2729604,-0.44771 0.8101832,-0.68939 1.5323785,-0.68939 1.3745136,0 2.8112928,-0.47943 4.2212223,-1.40853 1.0915885,-0.71934 1.8533705,-1.55442 2.5545815,-2.8004 0.621603,-1.10452 0.909702,-1.36003 1.532931,-1.35947 0.665929,8.4e-4 1.119717,0.32767 1.50088,1.08174 1.092483,2.16128 3.004656,3.68118 5.390257,4.28445 1.336906,0.33807 3.108748,0.25337 4.482057,-0.21429 0.551313,-0.18772 1.015324,-0.32911 1.031138,-0.3142 0.01582,0.0149 -0.146746,0.40698 -0.361244,0.87122 -0.572966,1.24012 -0.669838,1.80873 -0.452604,2.65667 0.206453,0.80588 0.492755,1.30988 0.974215,1.715 0.484556,0.40773 1.327232,0.81546 1.862134,0.90099 0.25009,0.0399 0.454709,0.11276 0.454709,0.16185 0,0.12846 -1.113193,0.53025 -2.335525,0.84292 -4.080175,1.04366 -9.00395,0.23079 -11.896298,-1.96395 l -0.588242,-0.44637 -0.581208,0.4373 c -0.791067,0.59519 -2.080177,1.2661 -3.087172,1.6067 -1.8898875,0.63919 -4.9371769,1.01892 -5.6339419,0.70203 z m 16.5129469,-8.92596 c -0.837494,-0.23019 -1.26336,-0.57839 -3.090082,-2.5265 -4.790552,-5.10893 -8.1047695,-9.87994 -10.700902,-15.40458 -0.5843055,-1.24343 -1.658116,-3.9747 -1.820631,-4.63086 -0.070783,-0.28579 -0.034572,-0.30231 7.370511,-3.36187 4.092904,-1.69107 9.521594,-3.93492 12.063755,-4.98634 2.54216,-1.05143 4.677654,-1.93441 4.745539,-1.96219 0.141364,-0.0578 0.186555,0.43166 0.433378,4.69466 0.09221,1.59269 0.243315,4.14876 0.335778,5.68017 0.09246,1.53143 0.216972,3.6615 0.276684,4.7335 0.135526,2.43306 0.417748,7.26406 0.510761,8.74302 0.03852,0.61256 0.08497,1.12985 0.103211,1.14951 0.04486,0.0483 0.134618,-1.24519 0.334818,-4.82492 0.0925,-1.65394 0.19333,-3.38305 0.224072,-3.84247 0.03074,-0.45943 0.130432,-2.13843 0.221528,-3.7311 0.09109,-1.59268 0.192349,-3.34686 0.224999,-3.89818 0.03265,-0.55129 0.132704,-2.24578 0.222338,-3.7655 0.225135,-3.81702 0.303468,-4.97751 0.335975,-4.97751 0.01534,0 0.797182,0.32075 1.737433,0.71276 0.940252,0.39203 5.618853,2.32664 10.396892,4.29916 10.310164,4.25636 12.118114,5.00861 12.175473,5.06595 0.05839,0.0584 -0.481632,1.67714 -0.947218,2.83932 -0.660998,1.64997 -2.260621,4.89387 -3.064443,6.21443 l -0.222026,0.36476 -0.345902,-0.53182 c -0.507098,-0.77966 -1.709172,-1.91881 -2.532783,-2.40023 -0.395688,-0.23127 -1.120386,-0.5528 -1.610441,-0.7145 -1.590952,-0.4024 -3.142974,-0.46459 -4.566424,0 -1.226096,0.40457 -2.188736,0.9944 -3.12484,1.91465 -1.469874,1.445 -2.16875,3.05379 -2.249787,5.17899 -0.072,1.88826 0.366557,3.42891 1.362141,4.78515 0.677113,0.82823 0.249636,0.65082 -0.470403,0.69525 -1.292911,0.0772 -2.24219,0.58621 -3.035002,1.62717 l -0.27844,0.36559 -1.600626,-1.28184 c -1.840094,-1.47363 -2.292534,-1.68318 -3.454045,-1.5998 -1.330291,0.0954 -2.162679,0.69889 -2.914074,2.1124 -0.870026,1.63669 -2.324733,2.83662 -3.953132,3.26076 -0.788566,0.20539 -2.3522,0.20691 -3.094078,0.003 z m -9.431114,-34.81112 v -5.67422 l 19.685738,0.0281 19.685738,0.0281 0.02887,5.59665 c 0.02328,4.51397 0.001,5.59664 -0.114969,5.59664 -0.12056,0 -4.579972,-1.81954 -11.051519,-4.50929 -4.344751,-1.80579 -8.503885,-3.50977 -8.566759,-3.50977 -0.03948,0 -0.609002,0.22325 -1.265623,0.49611 -0.656624,0.27285 -4.852565,2.00647 -9.324319,3.85246 -4.471753,1.84601 -8.343468,3.44929 -8.60381,3.56286 l -0.473348,0.20649 z m 5.346056,-10.88807 c 0,-3.38056 0.07859,-3.81878 0.80987,-4.5159 0.248355,-0.23675 0.856078,-0.62299 1.185203,-0.77963 l 0.733644,-0.34918 h 11.758089 c 13.600442,0 11.182132,-0.10767 12.415264,0.33611 0.763448,0.39046 1.415918,1.16587 1.601637,1.90344 0.07044,0.27977 0.119968,1.67437 0.119968,3.37858 v 2.90214 H 31.269363 16.957525 Z m 8.910095,-1.02259 v -1.55926 h -2.673027 -2.67303 v 1.55926 1.55925 h 2.67303 2.673027 z m 8.019084,0 v -1.55926 h -2.617341 -2.61734 v 1.55926 1.55925 h 2.61734 2.617341 z m 8.130458,0 v -1.55926 h -2.673027 -2.673028 v 1.55926 1.55925 h 2.673028 2.673027 z m -15.851429,-6.08745 c -0.04144,-0.0414 -0.07536,-1.16964 -0.07536,-2.50707 v -2.43172 h 5.181122 5.181122 l -0.02998,2.47812 -0.02997,2.47813 -5.075786,0.0289 c -2.791683,0.016 -5.109698,-0.006 -5.151148,-0.0464 z"
       style="display:inline;fill:#000000;stroke-width:0.11137617" />
    <text
       xml:space="preserve"
       style="font-style:normal;font-weight:normal;font-size:4.48512506px;line-height:1.25;font-family:sans-serif;letter-spacing:0px;word-spacing:0px;fill:#000000;fill-opacity:1;stroke:none;stroke-width:0.30580395"
       x="66.329117"
       y="173.07079"
       id="text4836"><tspan
         sodipodi:role="line"
         id="tspan4834"
         x="66.329117"
         y="177.03906"
         style="font-size:4.48512506px;stroke-width:0.30580395" /></text>
    <text
       xml:space="preserve"
       style="font-style:normal;font-weight:normal;font-size:4.0773859px;line-height:1.25;font-family:sans-serif;letter-spacing:0px;word-spacing:0px;fill:#000000;fill-opacity:1;stroke:none;stroke-width:0.30580395"
       x="73.100494"
       y="166.29941"
       id="text4840"><tspan
         sodipodi:role="line"
         id="tspan4838"
         x="73.100494"
         y="169.90694"
         style="font-size:4.0773859px;stroke-width:0.30580395" /></text>
    <text
       id="text4867"
       y="249.77199"
       x="15.408064"
       style="font-style:normal;font-weight:normal;font-size:18.96902466px;line-height:1.25;font-family:sans-serif;letter-spacing:0px;word-spacing:0px;fill:#ffffff;fill-opacity:1;stroke:none;stroke-width:1.4226768"
       xml:space="preserve"><tspan
         style="fill:#ffffff;fill-opacity:1;stroke-width:1.4226768"
         y="249.77199"
         x="15.408064"
         id="tspan4865"
         sodipodi:role="line">5</tspan></text>
  </g>
  <g
     inkscape:groupmode="layer"
     id="layer4"
     inkscape:label="Layer 3"
     style="display:inline"
     transform="translate(0,53.000006)">
    <text
       xml:space="preserve"
       style="font-style:normal;font-variant:normal;font-weight:normal;font-stretch:normal;font-size:3.39947867px;line-height:0.75;font-family:monospace;-inkscape-font-specification:'monospace, Normal';font-variant-ligatures:normal;font-variant-caps:normal;font-variant-numeric:normal;font-feature-settings:normal;text-align:start;letter-spacing:0px;word-spacing:0px;writing-mode:lr-tb;text-anchor:start;fill:#000000;fill-opacity:1;stroke:none;stroke-width:0.31870109"
       x="4.293282"
       y="20.653051"
       id="text29266"><tspan
         sodipodi:role="line"
         x="4.293282"
         y="22.810925"
         style="font-style:normal;font-variant:normal;font-weight:normal;font-stretch:normal;font-size:2.54960871px;line-height:0.75;font-family:'Fira Sans';-inkscape-font-specification:'Fira Sans';fill:#ffffff;stroke-width:0.31870109"
         id="tspan29433" /></text>
    <text
       xml:space="preserve"
       style="font-style:normal;font-variant:normal;font-weight:bold;font-stretch:normal;font-size:11.91674042px;line-height:1.25;font-family:sans-serif;-inkscape-font-specification:'sans-serif Bold';letter-spacing:0px;word-spacing:0px;fill:#000000;fill-opacity:1;stroke:none;stroke-width:0.29791853"
       x="6.6637082"
       y="40.820225"
       id="text4879"><tspan
         sodipodi:role="line"
         id="tspan4877"
         x="6.6637082"
         y="40.820225"
         style="font-style:normal;font-variant:normal;font-weight:600;font-stretch:normal;font-family:'Fira sans';-inkscape-font-specification:'Fira sans Semi-Bold';stroke-width:0.29791853">PORT FIVE</tspan></text>
  </g>
</svg>
